<svg width="27" height="25" viewBox="0 0 27 25" fill="none" xmlns="http://www.w3.org/2000/svg">
<path d="M0.5 20.5606V3.44752L26.5 0.558632V23.931L0.5 20.5606Z" stroke="white"/>
<path d="M14.1738 16H11.9717L10.9658 13.3145C10.9561 13.2689 10.9382 13.2087 10.9121 13.1338C10.8893 13.0589 10.86 12.9694 10.8242 12.8652L10.8389 13.3633V16H8.8125V8.46094H10.8975C11.8154 8.46094 12.5023 8.6416 12.958 9.00293C13.5374 9.46517 13.8271 10.1227 13.8271 10.9756C13.8271 11.887 13.4382 12.5169 12.6602 12.8652L14.1738 16ZM10.8486 11.9521H10.9854C11.2197 11.9521 11.415 11.8626 11.5713 11.6836C11.7275 11.5046 11.8057 11.2767 11.8057 11C11.8057 10.4368 11.5111 10.1553 10.9219 10.1553H10.8486V11.9521ZM16.8838 16H14.8477V8.46094H18.4463V10.2334H16.8838V11.332H18.3389V13.0361H16.8838V16Z" fill="white"/>
</svg>
